<?xml version="1.0" encoding="UTF-8" standalone="no"?>
<!-- Created with Inkscape (http://www.inkscape.org/) -->

<svg
   xmlns:dc="http://purl.org/dc/elements/1.1/"
   xmlns:cc="http://creativecommons.org/ns#"
   xmlns:rdf="http://www.w3.org/1999/02/22-rdf-syntax-ns#"
   xmlns:svg="http://www.w3.org/2000/svg"
   xmlns="http://www.w3.org/2000/svg"
   xmlns:sodipodi="http://sodipodi.sourceforge.net/DTD/sodipodi-0.dtd"
   xmlns:inkscape="http://www.inkscape.org/namespaces/inkscape"
   width="210mm"
   height="297mm"
   viewBox="0 0 210 297"
   version="1.1"
   id="svg133"
   inkscape:version="0.92.1 r15371"
   sodipodi:docname="logo.svg">
  <defs
     id="defs127" />
  <sodipodi:namedview
     id="base"
     pagecolor="#ffffff"
     bordercolor="#666666"
     borderopacity="1.0"
     inkscape:pageopacity="0.0"
     inkscape:pageshadow="2"
     inkscape:zoom="1.4"
     inkscape:cx="317.8558"
     inkscape:cy="723.41146"
     inkscape:document-units="mm"
     inkscape:current-layer="layer1"
     showgrid="false"
     inkscape:window-width="1366"
     inkscape:window-height="719"
     inkscape:window-x="0"
     inkscape:window-y="25"
     inkscape:window-maximized="1" />
  <metadata
     id="metadata130">
    <rdf:RDF>
      <cc:Work
         rdf:about="">
        <dc:format>image/svg+xml</dc:format>
        <dc:type
           rdf:resource="http://purl.org/dc/dcmitype/StillImage" />
        <dc:title></dc:title>
      </cc:Work>
    </rdf:RDF>
  </metadata>
  <g
     inkscape:label="Layer 1"
     inkscape:groupmode="layer"
     id="layer1">
    <g
       id="g181"
       transform="matrix(1.5974199,0,0,1.5974199,269.78966,-73.666711)"
       style="stroke:none">
      <rect
         ry="6.1551065"
         y="86.315392"
         x="-133.368"
         height="50.101955"
         width="50.101955"
         id="rect4727-3"
         style="fill:#3078be;fill-opacity:1;stroke:none;stroke-width:0.00382288;stroke-linecap:round;stroke-linejoin:miter;stroke-miterlimit:4;stroke-dasharray:none;stroke-dashoffset:4;stroke-opacity:1;paint-order:fill markers stroke" />
      <g
         style="fill:#ffffff;stroke:none"
         transform="matrix(0.28979615,0,0,0.28979615,-15.562466,79.91043)"
         id="g4742">
        <path
           inkscape:connector-curvature="0"
           id="path4746"
           d="m -380.29261,94.191095 c 0,-0.04554 0.38695,-0.432488 0.8599,-0.859896 l 0.85989,-0.777105 -0.7771,0.859896 c -0.72438,0.801544 -0.94269,0.981511 -0.94269,0.777105 z"
           style="fill:#ffffff;stroke-width:0.26458332;stroke:none" />
        <path
           inkscape:connector-curvature="0"
           id="path4744"
           d="m -321.73391,174.81845 c -1.4137,-0.52055 -3.34164,-2.21704 -4.21702,-3.71076 -0.74628,-1.27343 -0.86117,-1.32043 -3.80627,-1.55693 -3.07342,-0.24681 -8.26513,-1.12782 -11.89111,-2.01788 -8.94945,-2.19678 -16.17579,-5.8824 -21.20938,-10.81733 -2.30838,-2.26314 -4.70198,-5.57284 -5.26577,-7.28113 -0.28563,-0.86548 -0.37388,-0.92095 -1.46509,-0.92095 h -1.16116 l -0.0751,-2.79826 -0.0751,-2.79827 -1.85209,-0.72352 c -5.39396,-2.10717 -9.55763,-6.49693 -11.44691,-12.06849 l -0.71775,-2.11667 -0.0823,-11.63596 c -0.0945,-13.34981 -0.0363,-13.87402 1.9906,-17.947708 0.99989,-2.009558 1.63396,-2.857381 3.65814,-4.891307 l 2.44859,-2.460395 0.93057,-3.649887 c 2.77373,-10.87915 8.25119,-20.395515 16.28882,-28.299637 11.38188,-11.192828 26.23102,-17.234112 42.36049,-17.234112 15.56302,0 29.19519,5.292864 41.0087,15.922144 8.39192,7.550684 15.15455,19.03899 17.83305,30.294664 l 0.70446,2.960301 2.45022,2.463657 c 2.04359,2.054797 2.65847,2.880797 3.70505,4.977199 2.00387,4.013921 2.07029,4.618231 1.97537,17.969751 l -0.082,11.53129 -0.71775,2.11667 c -1.03979,3.06637 -2.42936,5.27051 -4.83725,7.67287 -3.75094,3.74232 -7.44088,5.38932 -12.59192,5.62038 -3.035,0.13614 -6.11624,-0.282 -7.82916,-1.06246 l -0.60838,-0.27719 V 115.65612 89.233706 l 0.72761,-0.278615 c 1.89206,-0.724503 4.128,-1.108019 6.61456,-1.134557 1.49157,-0.01593 2.71196,-0.03904 2.71197,-0.05139 2e-5,-0.01236 -0.24864,-0.779928 -0.55256,-1.705734 -4.8261,-14.701028 -15.63597,-26.521974 -29.7422,-32.52408 -7.32844,-3.1182 -14.51123,-4.44041 -22.62187,-4.164243 -8.06242,0.274525 -14.53716,1.920394 -21.82813,5.548672 -12.78171,6.360693 -22.33817,17.451456 -26.83178,31.139651 -0.30392,0.925806 -0.55259,1.698013 -0.55259,1.716013 0,0.01799 1.22039,0.04145 2.71198,0.0521 2.52609,0.01804 5.669,0.563295 6.88043,1.193659 0.43866,0.228254 0.46057,1.705089 0.39688,26.747608 l -0.0674,26.50603 -1.05833,0.29641 -1.05833,0.29642 -0.0751,2.8209 -0.0751,2.82091 h -1.06631 -1.06631 l 0.61224,1.11873 c 0.93144,1.70197 4.50906,5.29833 6.78392,6.81944 2.43773,1.63001 6.04651,3.40825 9.11401,4.49093 4.84575,1.71034 12.25193,3.25596 17.32822,3.61628 l 2.38485,0.16928 0.17438,-0.76514 c 0.25406,-1.11481 1.45318,-2.73989 2.75355,-3.73172 3.16571,-2.41457 7.97546,-2.08541 10.83976,0.74182 4.04423,3.99189 3.12336,10.62842 -1.85084,13.33862 -1.18787,0.64722 -1.7579,0.7782 -3.65623,0.84016 -1.53006,0.0499 -2.60214,-0.0566 -3.3538,-0.33342 z"
           style="fill:#ffffff;stroke-width:0.26458332;stroke:none" />
      </g>
    </g>
  </g>
</svg>
